<svg width="12" height="12" viewBox="0 0 12 12" fill="none" xmlns="http://www.w3.org/2000/svg">
<path d="M5.96291 11.0225L5.96354 11.0219L9.73882 7.14071L10.5643 6.29208H9.38041H0.770467C0.682785 6.29208 0.630313 6.26753 0.579536 6.21533C0.528106 6.16246 0.499769 6.10243 0.500003 6.00115V6C0.500003 5.89747 0.528813 5.83681 0.580306 5.78388C0.631026 5.73173 0.682855 5.70771 0.769255 5.70792H0.770467H9.38041H10.5643L9.73882 4.85929L5.96354 0.978103L5.62102 1.31128L5.96354 0.978103C5.92705 0.940592 5.89941 0.891587 5.90231 0.786004C5.90542 0.672835 5.93789 0.612456 5.98217 0.567101L5.9828 0.566451C6.02211 0.526039 6.0688 0.5 6.16372 0.5C6.25864 0.5 6.30533 0.526039 6.34463 0.566451L11.4297 5.79417L11.4455 5.81047L11.4628 5.82525C11.468 5.82974 11.4721 5.83375 11.4768 5.84842C11.4925 5.89655 11.5002 5.94557 11.5 5.99755V6C11.5 6.05464 11.4919 6.09819 11.4795 6.13412C11.4749 6.14758 11.4635 6.17127 11.4309 6.20463L11.4297 6.20583L6.34463 11.4335C6.30532 11.474 6.25863 11.5 6.16372 11.5C6.0688 11.5 6.02211 11.474 5.9828 11.4335C5.93847 11.388 5.90567 11.3269 5.90228 11.2129C5.89916 11.1081 5.9265 11.0598 5.96291 11.0225Z" fill="white" stroke="white"/>
</svg>
